# xmcd
#
# Track frame offsets:
#	150
#	14302
#	39372
#
# Disc length: 3957 seconds
#
# Revision: 0
# Processed by: cddbd v1.4PL0 Copyright (c) Steve Scherf et al.
# Submitted via: dBpowerAMP V4.0
#
DISCID=170f7303
DTITLE=Shane Minor - Slave to the Habit - CD Single
DYEAR=1900
DGENRE=Country
TTITLE0=Slave to The Habit (Album Version)
TTITLE1=Slave to The Habit (Alternate Version)
TTITLE2=DATA
EXTD=
EXTT0=
EXTT1=
EXTT2=
PLAYORDER=
